<?xml version="1.0" standalone="no"?>
<!DOCTYPE svg PUBLIC "-//W3C//DTD SVG 20010904//EN"
 "http://www.w3.org/TR/2001/REC-SVG-20010904/DTD/svg10.dtd">
<svg version="1.0" xmlns="http://www.w3.org/2000/svg"
 width="720.000000pt" height="926.000000pt" viewBox="0 0 720.000000 926.000000"
 preserveAspectRatio="xMidYMid meet">

<g transform="translate(0.000000,926.000000) scale(0.100000,-0.100000)"
fill="#000000" stroke="none">
<path d="M3756 9154 c-33 -8 -83 -27 -112 -43 -43 -23 -54 -26 -58 -14 -4 8
-16 13 -28 11 -18 -2 -24 -11 -26 -38 -3 -23 -16 -48 -43 -77 -82 -89 -144
-209 -181 -348 -17 -63 -22 -110 -22 -220 -1 -77 3 -166 7 -197 7 -51 6 -58
-8 -58 -47 0 -299 -65 -360 -93 -71 -32 -207 -108 -280 -156 -177 -117 -368
-302 -497 -482 -111 -155 -221 -426 -273 -669 l-11 -55 -14 40 c-14 42 -76
170 -206 425 -73 142 -129 259 -191 398 -17 40 -28 52 -39 48 -9 -3 -18 -6
-20 -6 -11 0 -2 -39 13 -51 9 -8 43 -70 75 -139 72 -153 146 -300 199 -397 22
-40 71 -140 108 -222 l69 -149 5 -229 c6 -248 17 -332 68 -489 17 -53 29 -97
27 -98 -2 -1 -46 -15 -98 -30 -131 -38 -144 -47 -137 -99 5 -33 1 -46 -17 -68
-119 -141 97 -311 519 -410 50 -11 96 -26 104 -32 27 -22 162 -237 210 -335
80 -161 78 -150 43 -288 -41 -158 -53 -257 -53 -428 0 -216 27 -368 101 -563
22 -59 40 -120 41 -137 0 -17 8 -50 17 -74 32 -77 65 -99 106 -69 17 13 15 20
-37 118 -57 107 -120 266 -132 332 l-7 37 126 0 c87 0 126 -3 126 -11 0 -7 -5
-40 -12 -75 -10 -56 -9 -68 7 -103 16 -38 17 -42 1 -75 -22 -46 -20 -63 8 -90
l25 -22 -30 -45 c-37 -56 -36 -98 4 -117 15 -7 27 -17 27 -22 0 -6 -17 -26
-37 -45 l-38 -36 -85 6 c-47 3 -123 7 -170 9 l-85 3 80 -7 80 -7 -100 1 -100
1 -52 100 c-78 151 -134 297 -167 442 l-14 61 87 7 c47 4 113 12 146 19 50 9
60 14 60 31 0 18 -9 21 -124 28 -108 7 -126 6 -133 -7 -15 -26 -46 -19 -52 11
-11 55 -26 237 -26 317 0 216 55 491 139 704 27 68 27 84 0 80 -26 -4 -54 -68
-102 -233 -58 -199 -72 -302 -72 -540 0 -115 4 -242 8 -281 l8 -71 -58 -2
c-63 -2 -68 -4 -58 -20 3 -6 32 -11 64 -11 l59 0 22 -97 c30 -131 87 -289 152
-420 29 -59 54 -111 56 -115 2 -5 -37 -8 -87 -8 -84 0 -91 -2 -91 -20 0 -25
49 -35 140 -26 l68 7 44 -68 c106 -163 295 -362 463 -489 100 -74 292 -178
319 -172 8 2 -49 46 -127 98 -179 120 -269 193 -378 303 -83 84 -192 214 -232
278 l-19 29 79 2 78 2 -85 6 c-70 5 -54 7 87 8 161 2 173 1 183 -17 5 -11 19
-23 30 -26 14 -4 20 -15 20 -34 0 -46 91 -154 229 -272 85 -72 91 -78 91 -93
0 -7 14 -22 30 -35 25 -18 52 -24 143 -31 62 -5 120 -10 131 -10 17 0 18 -13
13 -327 -3 -200 -10 -354 -17 -396 -15 -76 -4 -117 29 -117 30 0 32 51 25 462
l-7 378 114 0 c63 0 150 -7 194 -15 339 -59 724 3 1025 167 454 248 755 681
830 1196 18 121 8 421 -18 539 -67 304 -199 556 -418 792 -54 58 -56 64 -75
157 -11 54 -33 138 -49 188 l-29 90 36 91 c81 201 120 379 123 565 1 68 4 79
11 55 8 -26 82 -342 97 -414 l5 -24 -39 27 c-39 26 -68 33 -78 17 -8 -13 13
-34 81 -81 56 -38 64 -48 80 -98 21 -66 49 -86 40 -28 -3 21 -2 36 4 36 16 0
290 -278 351 -355 234 -298 391 -670 445 -1051 23 -163 22 -441 -1 -599 -70
-467 -268 -869 -596 -1209 -280 -290 -615 -482 -1059 -607 -179 -50 -171 -47
-140 -48 51 -2 250 40 352 73 743 244 1315 898 1468 1680 40 203 49 479 24
686 -62 514 -295 979 -676 1345 -52 50 -119 110 -150 133 -54 41 -57 45 -77
125 -32 120 -112 467 -112 483 0 7 26 30 57 50 69 44 169 138 190 178 8 16 13
41 10 55 -3 14 1 37 8 51 8 14 14 43 15 66 0 33 -6 46 -32 71 -57 54 -129 90
-276 139 l-144 48 -40 80 c-22 45 -56 105 -75 135 -50 78 -252 487 -301 611
-53 132 -77 172 -100 168 -35 -7 -12 -87 60 -203 44 -71 180 -337 175 -341 -2
-3 -40 32 -83 77 -44 45 -89 92 -101 105 -37 37 -143 108 -226 150 -56 28 -77
43 -73 54 78 222 91 295 83 453 -12 223 -85 404 -217 537 -143 144 -308 197
-484 154z m297 -72 c123 -61 212 -155 281 -296 64 -132 81 -212 81 -381 0
-147 -15 -226 -65 -337 l-21 -47 -57 26 c-92 42 -310 113 -402 130 -60 12
-148 17 -302 17 l-217 1 -13 50 c-7 29 -12 104 -12 180 1 149 21 240 79 360
45 94 114 183 126 164 5 -8 7 -170 4 -361 -4 -302 -3 -348 10 -348 12 0 15 16
15 83 0 287 125 477 312 477 52 0 73 -6 115 -30 63 -36 123 -109 154 -187 33
-82 33 -260 1 -347 -30 -80 -29 -96 3 -66 59 55 85 268 49 391 -36 121 -105
213 -196 261 -62 32 -184 33 -249 0 -55 -27 -142 -110 -159 -152 -19 -47 -30
-35 -25 28 22 267 27 328 31 333 6 11 132 71 166 80 18 4 76 7 129 6 85 -2
103 -6 162 -35z m-198 -962 c227 -48 452 -126 442 -152 -5 -15 -37 -15 -209 2
l-128 13 -50 58 c-47 53 -84 79 -97 65 -7 -7 108 -143 127 -150 8 -3 82 -12
164 -21 82 -8 151 -17 154 -19 2 -3 -7 -16 -20 -31 l-24 -26 -138 10 c-98 7
-143 14 -154 25 -10 8 -55 60 -102 115 -74 86 -131 134 -145 120 -2 -3 42 -59
98 -125 56 -66 111 -133 122 -148 20 -27 24 -28 215 -47 107 -11 242 -24 300
-29 58 -5 134 -12 169 -16 l64 -7 87 -86 c117 -116 245 -293 298 -415 26 -58
26 -56 8 -56 -8 0 -16 12 -18 27 -4 33 -27 43 -35 14 -3 -14 -13 -21 -28 -21
-22 0 -22 2 -13 42 9 44 4 88 -11 88 -10 0 -21 -35 -21 -72 0 -15 -7 -34 -16
-42 -11 -11 -14 -25 -9 -46 6 -26 4 -30 -14 -30 -26 0 -27 20 -5 141 16 84 13
146 -5 135 -4 -3 -14 -40 -20 -83 -21 -134 -27 -146 -49 -99 -8 19 -7 50 7
133 13 74 15 114 9 127 -15 28 -24 7 -39 -96 l-13 -90 -24 28 c-23 26 -24 33
-16 93 11 95 11 154 -2 158 -6 2 -16 -30 -23 -82 -7 -47 -17 -85 -22 -85 -12
0 -59 65 -59 81 0 8 7 23 15 33 19 24 19 55 1 79 -20 27 -111 58 -196 68 -41
5 -91 18 -112 29 -43 22 -89 29 -95 14 -2 -6 8 -16 23 -23 15 -6 25 -13 23
-16 -3 -2 -303 28 -336 35 0 0 -76 87 -167 194 -92 107 -173 197 -182 200 -40
15 -44 2 -11 -34 17 -19 183 -213 328 -384 4 -5 90 -17 191 -27 305 -30 313
-33 418 -139 l56 -55 -13 -74 c-6 -40 -14 -78 -16 -84 -2 -6 -26 9 -53 35 -44
41 -83 68 -98 68 -3 0 -6 -8 -5 -17 0 -10 27 -40 60 -66 89 -72 90 -73 69
-196 -12 -70 -24 -109 -37 -121 -10 -10 -95 -69 -190 -133 l-172 -115 -41 12
c-30 9 -55 29 -95 75 -30 34 -55 64 -55 66 0 2 4 15 10 30 11 30 -8 78 -36 89
-19 7 -20 -8 16 331 11 104 20 195 20 201 0 6 -14 26 -31 45 -17 19 -52 59
-78 89 -176 208 -290 340 -322 373 -38 38 -63 48 -57 23 3 -13 122 -157 273
-331 175 -200 168 -189 162 -248 -8 -66 -47 -448 -47 -458 0 -4 -16 -17 -36
-29 l-37 -21 6 68 c4 37 14 131 22 208 8 77 18 169 21 205 l6 65 -119 137
c-285 329 -333 389 -333 416 0 24 363 10 495 -18z m-535 -2 c0 -40 11 -66 29
-71 10 -2 107 -107 215 -233 l197 -229 -6 -80 c-3 -44 -12 -138 -20 -210 -8
-71 -24 -218 -35 -325 -12 -107 -23 -197 -25 -199 -6 -5 -45 62 -45 76 0 7 9
27 20 45 27 45 25 67 -11 104 l-30 31 10 79 c5 44 18 160 27 260 l17 181 -109
130 c-60 71 -142 168 -181 215 -40 47 -73 94 -73 105 0 55 -96 86 -153 49 -25
-17 -27 -23 -25 -80 2 -71 -16 -191 -79 -513 -24 -128 -46 -247 -48 -265 -8
-76 -66 -382 -73 -387 -11 -8 -503 -376 -606 -454 -77 -58 -103 -64 -94 -21 2
11 128 112 293 235 160 119 301 225 313 235 26 21 28 29 67 263 24 141 25 145
60 173 61 51 41 128 -34 128 -35 0 -39 4 -106 108 -76 117 -187 274 -218 309
-19 21 -19 21 37 62 31 23 66 45 80 50 13 5 57 32 97 58 102 68 230 123 394
169 104 29 115 29 115 2z m1137 -229 c78 -48 100 -69 69 -69 -7 0 -25 10 -39
23 -48 40 -90 72 -121 90 -17 10 -22 16 -12 12 11 -3 57 -28 103 -56z m-992
-164 l147 -170 -6 -90 c-4 -49 -15 -169 -25 -265 -15 -146 -21 -176 -36 -185
-36 -20 -55 -46 -55 -73 0 -32 42 -82 70 -82 36 0 105 -129 82 -152 -8 -8 -73
-1 -229 26 -120 20 -228 36 -239 36 -12 0 -156 -100 -325 -227 -167 -124 -341
-253 -386 -287 -46 -33 -83 -66 -83 -73 0 -22 22 -7 395 272 193 144 362 269
375 278 23 14 41 12 249 -24 123 -21 225 -40 226 -41 1 -2 12 -20 24 -40 l23
-38 -24 0 c-13 0 -122 18 -243 39 -168 30 -224 37 -240 28 -20 -10 -201 -144
-486 -358 -86 -65 -168 -121 -183 -125 -30 -7 -66 -48 -66 -75 0 -10 13 -33
28 -51 l28 -33 3 -197 c1 -109 1 -198 -2 -198 -5 0 -57 77 -57 84 0 2 9 6 21
9 30 8 18 31 -18 35 -27 3 -35 11 -56 55 -70 150 -101 263 -92 335 8 62 -28
32 470 402 170 127 313 238 316 248 4 9 23 114 43 232 21 118 46 260 56 315
10 55 29 163 40 240 23 149 59 334 67 349 7 11 15 2 188 -199z m-246 176 c12
-8 13 -19 3 -63 -11 -55 -37 -203 -71 -413 -35 -209 -110 -638 -113 -640 -15
-11 -479 -357 -605 -450 -89 -66 -165 -129 -169 -140 l-7 -20 -8 20 c-20 52
-14 58 164 190 94 71 256 191 359 268 103 76 189 146 192 156 3 9 19 104 36
211 18 107 49 285 70 395 21 110 48 261 60 335 12 74 23 141 25 148 5 14 43
16 64 3z m1176 -18 c14 -15 25 -31 25 -35 0 -6 -130 1 -138 8 -2 1 4 14 13 28
23 35 66 35 100 -1z m-1725 -258 c39 -55 91 -131 116 -170 25 -38 54 -78 65
-87 19 -16 19 -19 4 -41 -17 -26 -9 -65 20 -97 11 -13 7 -47 -21 -210 -18
-107 -33 -196 -34 -196 0 -1 -73 -56 -162 -122 -90 -66 -217 -161 -283 -210
-66 -50 -121 -89 -123 -87 -2 2 4 28 13 58 9 31 15 80 13 109 -3 46 -6 53 -25
56 -37 5 -64 -64 -70 -184 -5 -96 -7 -102 -32 -117 -14 -9 -45 -33 -68 -54
l-43 -38 -24 -142 c-21 -127 -23 -238 -4 -208 3 6 19 86 34 179 l29 168 57 45
58 44 0 -36 c0 -22 -6 -38 -15 -41 -19 -8 -21 -14 -54 -208 -16 -92 -31 -169
-33 -170 -1 -2 -22 -6 -45 -9 l-41 -5 -30 92 c-17 50 -36 113 -42 141 -19 83
-31 304 -20 370 5 33 14 105 20 160 14 126 56 373 77 445 66 232 277 525 483
674 l65 47 23 -28 c12 -15 54 -73 92 -128z m1985 -300 c-3 -33 -9 -75 -13 -93
l-7 -34 -34 46 -33 47 13 86 13 86 34 -39 c32 -38 33 -41 27 -99z m85 -70 c0
-48 -12 -65 -42 -65 -26 0 -29 3 -25 23 3 12 9 44 13 71 l7 50 23 -30 c13 -16
24 -38 24 -49z m-120 -124 c0 -58 -22 -157 -38 -172 -9 -9 -119 -85 -244 -168
-226 -151 -264 -181 -236 -181 8 0 23 7 34 15 10 8 22 15 25 15 14 0 21 -104
25 -357 l5 -262 -107 -111 c-59 -60 -113 -110 -120 -110 -7 0 -22 -15 -31 -34
-19 -36 -220 -256 -234 -256 -5 0 -9 13 -9 29 0 24 20 50 98 133 54 57 148
156 209 220 l110 118 5 257 c3 142 3 273 1 291 -7 46 -31 56 -76 32 -21 -11
-47 -20 -59 -20 -12 0 -29 -7 -38 -15 -14 -13 -27 -13 -111 1 -51 9 -98 19
-102 23 -4 4 8 24 27 44 30 32 46 39 130 58 87 20 97 21 113 7 24 -21 59 -31
83 -23 23 7 50 53 51 87 0 19 37 48 194 152 107 71 197 137 200 145 2 9 10 50
16 91 6 41 13 79 16 83 8 14 63 -65 63 -92z m165 59 c3 -5 -1 -10 -9 -10 -9 0
-16 5 -16 10 0 6 4 10 9 10 6 0 13 -4 16 -10z m185 -30 c0 -21 -33 -29 -45
-10 -9 15 4 30 26 30 12 0 19 -7 19 -20z m77 4 c19 -5 52 -64 36 -64 -29 0
-83 26 -83 40 0 29 10 34 47 24z m-343 -10 c16 -6 22 -45 9 -57 -6 -7 -43 40
-43 56 0 9 13 9 34 1z m92 -58 c-4 -23 -10 -60 -13 -83 -7 -49 -15 -54 -31
-18 -15 32 -15 41 -1 103 9 43 13 49 31 44 18 -4 19 -10 14 -46z m550 -29
c105 -39 200 -103 210 -142 3 -13 1 -32 -5 -43 -10 -19 -15 -17 -93 35 -45 30
-126 76 -180 101 -89 43 -118 67 -118 101 0 8 93 -18 186 -52z m-383 11 c8
-18 59 -100 114 -183 98 -148 99 -151 97 -205 -2 -53 -3 -54 -40 -67 -21 -7
-42 -12 -48 -10 -8 3 -48 127 -40 127 2 0 15 -18 29 -40 14 -22 30 -40 35 -40
20 0 9 30 -30 86 -22 32 -40 62 -40 68 0 6 -12 22 -25 35 -36 34 -105 182
-105 225 0 29 4 36 20 36 13 0 24 -11 33 -32z m-283 -18 c18 -35 19 -47 10
-102 -5 -34 -13 -64 -18 -67 -49 -34 -316 -212 -343 -229 -34 -21 -39 -21 -73
-7 -20 8 -36 17 -36 19 0 2 92 66 205 142 l204 137 13 73 c6 41 13 74 15 74 1
0 12 -18 23 -40z m250 -165 c64 -133 104 -238 98 -255 -4 -12 -218 303 -218
321 0 7 5 42 11 78 l12 66 20 -45 c11 -25 46 -99 77 -165z m125 179 l51 -17
38 -113 c21 -63 36 -124 33 -137 -3 -21 -4 -20 -16 7 -6 16 -46 79 -87 139
-78 114 -92 137 -78 137 4 0 30 -7 59 -16z m255 -110 c93 -49 176 -107 194
-136 21 -34 -111 -141 -211 -172 -20 -6 -23 -4 -23 21 0 47 -27 173 -66 311
-9 32 6 29 106 -24z m-1457 -47 c46 1 65 -12 119 -80 23 -29 28 -41 19 -50 -6
-6 -11 -19 -11 -29 0 -23 -23 -34 -120 -57 l-81 -19 -11 24 c-6 13 -20 26 -30
30 -12 3 -17 12 -14 22 3 9 8 49 11 87 3 39 9 83 12 98 l5 29 29 -28 c24 -23
38 -28 72 -27z m905 -35 c16 -50 52 -256 52 -298 0 -1 -25 -8 -56 -14 -57 -12
-100 -42 -88 -62 5 -7 32 -9 81 -4 69 5 75 4 80 -14 8 -28 33 -25 33 4 0 22 6
25 73 36 39 6 82 13 93 15 17 4 23 -1 28 -26 14 -73 13 -75 -79 -108 -202 -73
-392 -116 -560 -125 -103 -7 -138 -16 -122 -33 4 -3 69 -1 145 5 153 13 313
49 494 111 65 23 120 41 123 41 3 0 5 -31 5 -70 0 -63 2 -70 20 -70 18 0 20 7
20 83 l0 82 59 23 c32 12 61 22 65 22 11 0 6 -151 -8 -255 -21 -147 -61 -300
-110 -417 l-13 -30 -27 56 c-19 39 -33 56 -47 56 -22 0 -26 -29 -8 -63 10 -18
7 -17 -14 6 -32 33 -78 36 -107 7 -11 -11 -20 -24 -20 -30 0 -6 -81 -11 -207
-12 -278 -4 -280 -22 -4 -26 l203 -2 28 -30 c16 -17 36 -30 47 -30 28 0 63 29
78 63 l13 31 16 -38 c9 -21 16 -44 16 -52 0 -23 -134 -238 -261 -419 -231
-327 -344 -527 -383 -679 -9 -32 -24 -121 -36 -199 -38 -266 -55 -339 -108
-444 -31 -63 -42 -76 -81 -95 -41 -20 -62 -22 -266 -25 l-222 -2 -6 97 c-10
140 -8 260 2 267 5 3 25 -2 45 -11 29 -14 39 -15 64 -5 29 12 52 47 52 77 0
27 -47 64 -82 65 -24 0 -39 8 -57 30 -29 37 -40 109 -19 126 8 7 55 15 105 19
l92 7 178 -114 c98 -62 186 -119 196 -127 17 -15 34 -11 23 6 -3 5 -91 64
-196 132 l-190 122 -106 -7 -105 -7 13 21 c7 12 20 23 28 26 33 10 202 25 213
18 7 -3 86 -53 176 -111 176 -111 196 -122 190 -103 -2 6 -85 63 -184 126
-193 123 -190 122 -303 106 -29 -4 -55 -4 -57 -1 -8 12 33 42 66 49 24 5 33
12 34 28 1 13 22 41 49 64 26 23 65 68 87 100 41 61 129 234 129 255 0 24 28
33 137 45 l110 13 72 -53 c40 -29 79 -55 87 -58 27 -10 14 22 -19 44 -17 11
-55 38 -84 58 l-52 37 -108 -15 c-59 -8 -110 -13 -112 -11 -2 2 7 45 21 96
l25 93 95 3 95 3 6 151 c11 244 9 295 -9 302 -9 3 -67 6 -131 6 -67 0 -113 4
-111 9 2 6 41 48 87 95 l83 86 224 0 223 0 30 -32 c17 -18 31 -36 31 -40 0 -5
-110 -8 -245 -8 l-245 0 -46 -42 c-31 -28 -42 -44 -34 -52 7 -7 22 1 48 27
l38 37 368 2 c285 2 370 6 374 16 3 9 -22 12 -102 12 -100 0 -125 8 -92 27 17
10 36 47 36 69 0 30 -40 64 -76 64 -25 0 -39 -7 -56 -30 l-22 -30 -236 0 -237
0 -109 -110 c-87 -87 -115 -110 -137 -110 -37 0 -32 8 73 116 l85 88 2 196 c1
107 2 219 3 248 0 46 2 52 20 52 31 0 70 44 70 79 0 29 13 40 194 160 106 71
196 137 200 146 3 9 6 25 6 36 0 39 17 17 38 -49z m111 -68 c17 -23 31 -44 31
-48 0 -4 23 -41 51 -82 28 -42 49 -77 47 -79 -1 -1 -35 -6 -75 -10 -83 -8 -76
-18 -93 125 -7 52 -18 115 -26 140 -19 63 -17 69 10 29 14 -19 39 -52 55 -75z
m655 -56 c-39 -67 -207 -209 -225 -191 -4 4 -10 20 -14 34 -6 24 -3 27 40 39
50 14 148 73 179 108 21 24 31 29 20 10z m-1954 -184 c375 -65 398 -73 300
-108 l-51 -18 -24 26 c-29 32 -76 35 -105 6 -26 -26 -29 -26 -228 10 -92 16
-192 32 -222 35 l-55 6 -194 -146 c-107 -80 -207 -149 -223 -152 -32 -6 -68
-46 -68 -74 0 -10 14 -34 30 -52 l30 -35 0 -483 c-1 -424 -2 -481 -15 -459 -8
15 -12 38 -9 57 5 25 2 32 -14 38 -19 5 -40 41 -169 283 l-33 63 0 228 0 228
24 11 c30 13 46 74 27 103 -6 11 -11 23 -11 28 0 5 60 53 133 107 72 54 213
158 311 232 162 120 183 133 210 128 17 -4 177 -32 356 -62z m1655 -16 c-1
-42 -2 -43 -61 -69 l-59 -27 -7 21 c-3 12 -6 36 -7 53 -1 28 3 32 47 47 79 26
88 24 87 -25z m-1152 -9 c3 -12 6 -134 7 -273 l0 -251 -186 -197 c-103 -109
-191 -198 -195 -198 -5 0 -9 12 -9 28 0 30 13 45 191 230 l119 124 0 200 0
200 30 30 c31 31 40 74 19 95 -11 11 -5 33 10 33 5 0 11 -10 14 -21z m-738
-64 c44 -8 134 -24 199 -35 128 -23 136 -25 136 -42 0 -26 34 -48 72 -48 33 0
42 5 56 30 10 17 33 35 57 45 49 18 74 19 98 1 15 -12 17 -34 17 -213 l0 -199
-135 -140 -134 -139 -1 153 0 152 60 0 c58 0 70 6 51 26 -6 5 -32 56 -58 114
-46 101 -110 220 -118 220 -2 0 -18 -30 -36 -67 -17 -37 -59 -111 -91 -165
-33 -54 -57 -105 -54 -113 4 -11 21 -15 56 -15 l50 0 0 -229 0 -229 -130 -137
c-83 -87 -130 -144 -130 -158 0 -19 -3 -18 -32 11 -43 41 -122 75 -151 66 -65
-20 -137 -112 -137 -175 0 -37 34 -135 55 -159 32 -37 37 -61 19 -81 -9 -10
-21 -19 -26 -19 -5 0 -26 -11 -46 -24 -37 -23 -39 -26 -51 -110 -7 -47 -16
-88 -20 -91 -15 -9 -52 132 -45 173 5 34 3 42 -15 51 -15 8 -21 21 -21 46 0
25 -7 39 -27 55 -23 18 -25 24 -15 41 9 14 12 140 12 511 l-1 492 26 23 c26
25 35 85 15 98 -5 3 -10 10 -10 16 0 7 169 136 335 257 35 25 63 27 170 7z
m-1111 -337 l17 -73 -28 -160 -28 -160 -38 -3 c-34 -3 -37 -1 -37 22 0 19 6
26 31 31 49 11 47 51 -4 68 -6 2 1 64 17 161 38 220 42 227 70 114z m66 -225
c0 -7 16 -46 35 -89 19 -42 35 -78 35 -80 0 -2 -31 -4 -70 -4 -38 0 -70 3 -70
8 0 11 30 184 36 212 l7 25 13 -30 c7 -16 13 -35 14 -42z m-302 -135 c26 -26
13 -38 -40 -38 -55 0 -117 -13 -156 -33 -19 -9 -25 -8 -32 3 -13 20 -3 27 76
55 75 27 133 32 152 13z m92 -12 c0 -21 -21 -31 -31 -15 -14 22 -11 29 11 29
11 0 20 -6 20 -14z m-33 -111 c12 -33 27 -68 33 -78 10 -16 8 -18 -7 -14 -10
3 -43 11 -73 17 -65 15 -200 74 -200 89 0 12 57 31 124 41 92 14 97 12 123
-55z m101 59 c29 -6 30 -8 25 -43 -4 -20 -9 -47 -13 -61 -6 -24 -7 -24 -33 15
-26 38 -37 95 -18 95 5 0 22 -3 39 -6z m208 -10 c23 -4 40 -23 83 -90 29 -47
51 -88 47 -91 -9 -9 -286 19 -293 29 -3 6 0 43 7 84 l13 74 57 0 c32 0 70 -3
86 -6z m1584 -49 c0 -17 -28 -54 -94 -122 -51 -54 -104 -111 -118 -127 -29
-34 -51 -28 -41 12 7 30 232 274 245 266 4 -3 8 -16 8 -29z m-1940 -101 c47
-9 90 -18 96 -19 11 -3 163 -224 173 -250 2 -5 10 -18 19 -27 14 -16 13 -18
-1 -18 -25 0 -141 28 -230 56 -162 51 -313 148 -343 221 -16 36 -6 73 27 109
l19 20 77 -38 c49 -25 109 -45 163 -54z m3123 -16 c14 -51 29 -108 32 -127 l7
-34 -30 22 c-35 25 -51 27 -58 6 -4 -9 16 -34 53 -69 l58 -54 0 -218 c-1 -240
-11 -321 -65 -504 -81 -270 -234 -514 -422 -671 -27 -23 -51 -40 -53 -37 -2 2
5 23 16 45 24 49 50 143 40 143 -4 0 -15 -26 -25 -57 -10 -32 -27 -75 -37 -95
l-19 -38 -70 0 c-53 0 -70 -3 -70 -14 0 -18 16 -23 63 -22 20 1 37 -2 37 -6 0
-14 -157 -87 -231 -108 -40 -11 -73 -19 -75 -17 -1 1 -4 25 -6 54 -6 68 3 83
47 76 47 -8 105 5 105 22 0 12 -14 15 -60 15 -54 0 -59 2 -51 18 60 114 91
233 126 477 27 191 41 251 82 355 46 117 60 141 222 390 31 47 61 92 66 102 6
9 35 52 66 95 55 77 144 219 189 301 13 23 27 42 30 42 4 0 19 -42 33 -92z
m-1183 -5 c-1 -34 -10 -48 -88 -128 -48 -49 -100 -98 -115 -108 -19 -13 -27
-26 -27 -48 0 -33 38 -79 65 -79 20 0 57 19 67 34 14 20 8 79 -9 98 -16 18
-15 21 19 56 19 20 44 47 54 60 29 35 44 28 44 -22 l0 -43 62 -7 c34 -3 63 -7
64 -9 6 -6 -28 -135 -53 -202 -53 -139 -114 -219 -271 -353 -29 -25 -55 -42
-58 -39 -3 3 -6 49 -7 103 l-2 98 30 7 c17 4 54 11 84 16 88 13 75 31 -16 21
-43 -5 -83 -6 -90 -4 -10 4 -13 45 -13 166 l0 160 42 48 c81 90 202 212 210
212 4 0 8 -17 8 -37z m-387 -67 c-4 -8 -39 -46 -76 -85 l-68 -72 2 -330 c1
-302 0 -332 -17 -350 -15 -16 -15 -19 -1 -19 9 0 18 -12 22 -30 4 -19 28 -49
65 -82 53 -49 58 -57 63 -105 3 -29 2 -55 -2 -58 -5 -2 -69 57 -142 133 -125
128 -136 142 -158 207 -19 54 -25 96 -28 185 l-3 115 44 48 44 49 4 -189 c3
-103 9 -197 13 -207 8 -19 9 -19 16 0 4 10 8 157 8 325 l1 306 108 113 c99
105 107 111 110 87 2 -15 0 -33 -5 -41z m-1155 38 l92 -7 0 -134 0 -133 -57 6
c-34 4 -62 12 -68 21 -87 129 -165 250 -165 257 0 5 24 6 53 3 28 -4 94 -9
145 -13z m197 -158 c30 -57 55 -106 55 -110 0 -3 -27 -6 -60 -6 l-60 0 0 93
c0 50 -3 103 -7 116 -12 48 16 10 72 -93z m959 21 c-3 -18 -11 -35 -15 -38 -5
-3 -10 -178 -10 -395 -1 -358 -6 -444 -28 -444 -3 0 -16 16 -28 35 -24 36 -31
109 -13 120 6 3 10 15 10 26 0 10 -4 19 -10 19 -6 0 -10 109 -10 308 l0 307
48 51 c26 28 51 49 55 46 5 -2 5 -18 1 -35z m1821 -296 c71 -94 168 -276 210
-391 74 -209 106 -450 86 -653 -22 -223 -64 -374 -161 -569 -80 -162 -154
-263 -294 -403 -252 -251 -552 -400 -901 -446 -89 -11 -391 -7 -448 7 l-27 6
40 44 c22 24 40 47 40 52 0 4 14 16 31 26 16 10 58 41 91 68 l61 51 121 -12
c149 -14 251 -17 294 -7 25 6 32 13 32 31 0 27 -47 125 -60 125 -20 0 -20 -21
0 -59 27 -54 25 -67 -11 -75 -59 -12 -302 3 -330 19 -4 3 8 29 28 58 63 94 61
93 178 101 111 7 135 12 135 28 0 7 -42 8 -120 3 -102 -6 -120 -5 -120 7 0 8
-14 30 -31 48 -17 18 -27 35 -23 39 5 3 22 21 37 39 30 37 34 75 13 126 -11
27 -11 36 0 57 18 32 17 54 -2 94 -14 31 -14 35 5 71 12 21 21 49 21 61 0 15
6 23 18 23 15 0 97 23 157 45 13 4 7 -5 -15 -24 -54 -47 -19 -36 47 14 32 25
76 57 98 71 22 14 54 35 70 47 29 21 40 21 245 19 118 -1 221 2 229 7 19 12 5
31 -23 31 -12 0 -27 5 -33 11 -11 11 -121 8 -273 -7 l-65 -7 91 94 c109 113
179 215 250 363 123 256 185 565 169 841 l-6 100 41 -45 c23 -25 70 -83 105
-129z m-2907 119 c19 0 22 -5 22 -39 0 -24 8 -48 20 -62 l19 -24 1 59 0 59 38
-7 c20 -4 56 -10 79 -13 38 -5 43 -9 62 -54 26 -59 26 -57 -4 -81 -30 -23 -33
-66 -7 -98 18 -23 18 -24 -17 -96 -33 -66 -51 -89 -51 -65 0 23 -144 310 -179
356 -57 76 -58 79 -30 72 13 -4 34 -7 47 -7z m342 -329 c11 -34 9 -60 -15
-202 -16 -90 -32 -168 -37 -174 -32 -36 -46 146 -22 292 9 59 21 113 26 120
15 19 34 5 48 -36z m274 32 c3 -10 8 -70 11 -133 9 -144 24 -192 85 -266 35
-42 45 -60 34 -62 -8 -2 -59 4 -114 13 -69 12 -104 14 -117 6 -16 -9 -19 -1
-34 82 -14 77 -14 102 -4 152 7 33 16 84 20 113 7 50 10 56 53 83 54 34 59 35
66 12z m-397 -195 c-9 -32 -13 -37 -15 -21 -3 19 13 63 22 63 2 0 -1 -19 -7
-42z m188 -23 c24 -91 15 -182 -23 -217 -30 -28 -87 -68 -96 -68 -17 0 -3 57
19 75 21 17 27 39 46 148 12 70 25 127 29 127 4 0 15 -29 25 -65z m-211 -121
c8 -32 25 -133 36 -224 31 -240 65 -358 131 -456 16 -23 25 -44 22 -48 -9 -9
-226 -7 -239 2 -35 24 -53 420 -25 567 16 86 52 227 57 222 2 -2 10 -30 18
-63z m260 -100 l6 -42 -75 -56 c-41 -31 -79 -56 -85 -56 -5 0 -10 12 -10 28 1
22 14 37 75 81 50 36 75 62 75 75 0 30 7 16 14 -30z m229 -44 c66 -12 128 -27
138 -34 25 -17 62 -66 56 -73 -3 -3 -78 8 -167 23 -129 22 -165 26 -181 16
-27 -17 -28 -16 -24 27 5 71 3 70 178 41z m-223 -54 c0 -37 -33 -86 -80 -120
-27 -20 -54 -36 -59 -36 -16 0 -23 52 -9 66 24 23 133 103 141 104 4 0 7 -6 7
-14z m790 -42 c0 -8 -5 -24 -11 -35 -8 -17 -7 -23 8 -35 16 -12 16 -13 2 -14
-20 0 -29 20 -29 66 0 24 5 34 15 34 8 0 15 -7 15 -16z m-516 -19 c83 -14 165
-30 181 -36 34 -12 110 -93 101 -107 -3 -6 -23 -6 -48 -1 -24 4 -123 22 -222
39 l-179 30 -33 -19 -34 -20 0 51 c0 59 19 88 58 88 13 0 92 -11 176 -25z
m-308 -96 c-3 -17 -6 -43 -6 -58 0 -19 -10 -33 -35 -50 -20 -13 -38 -22 -40
-19 -3 2 -8 24 -11 49 -6 43 -5 45 37 76 55 40 63 41 55 2z m377 -46 l217 -37
20 -33 c11 -18 26 -33 34 -33 23 0 29 -35 21 -126 l-7 -84 -236 -2 c-315 -4
-334 -2 -379 21 -43 21 -87 78 -108 138 -12 33 -12 39 1 48 9 6 57 40 107 77
51 37 97 68 102 68 6 0 108 -16 228 -37z m-918 -353 c-72 -12 -105 -11 -105 0
0 6 32 9 78 9 75 -2 75 -2 27 -9z m796 -41 c97 -10 108 -14 118 -35 6 -15 7
-24 1 -24 -6 0 -10 6 -10 13 0 16 -205 47 -262 40 -31 -4 -38 -2 -38 12 0 15
7 16 43 11 23 -3 90 -11 148 -17z m158 -49 c0 -10 -3 -8 -9 5 -12 27 -12 43 0
25 5 -8 9 -22 9 -30z m71 26 c0 -8 3 -23 6 -33 5 -12 4 -15 -3 -8 -16 15 -26
55 -14 55 6 0 11 -6 11 -14z m50 -10 c0 -13 6 -27 13 -29 8 -4 6 -6 -4 -6 -9
-1 -21 10 -27 24 -15 33 -15 35 3 35 9 0 15 -9 15 -24z m314 -18 c14 -23 24
-44 22 -46 -6 -5 -102 10 -116 18 -24 15 21 66 62 69 4 1 18 -18 32 -41z m46
32 c8 -5 11 -12 8 -16 -10 -9 -38 3 -38 16 0 12 10 13 30 0z m134 -12 c21 -29
20 -38 -2 -38 -15 0 -42 36 -42 55 0 14 31 2 44 -17z m76 -18 c20 -39 13 -52
-16 -32 -13 8 -34 46 -34 61 0 26 31 8 50 -29z m46 25 c16 -8 37 -15 47 -15 9
0 17 -4 17 -9 0 -5 3 -16 6 -25 5 -13 -1 -16 -30 -16 -32 0 -38 5 -56 40 -23
45 -23 46 16 25z m-697 -40 c0 -5 -4 -3 -9 5 -5 8 -9 22 -9 30 0 16 17 -16 18
-35z m511 30 c7 -9 10 -18 7 -22 -8 -7 -37 15 -37 28 0 14 16 11 30 -6z m-44
-49 c21 -16 16 -30 -9 -20 -16 6 -32 34 -19 34 5 0 17 -6 28 -14z m-540 -27
c3 -6 22 -9 40 -7 19 2 34 1 34 -4 0 -4 17 -10 38 -13 20 -4 46 -10 57 -15 16
-7 11 -9 -22 -9 -23 -1 -44 -5 -47 -10 -7 -11 18 -61 36 -72 16 -11 -25 -11
-99 -3 -53 7 -53 7 -89 71 -19 35 -40 61 -45 57 -6 -3 3 -29 20 -60 l29 -54
-32 0 c-28 0 -38 8 -76 60 -24 33 -47 60 -52 60 -17 0 -7 -27 23 -63 17 -21
28 -41 24 -45 -3 -4 -10 0 -15 8 -5 8 -23 35 -41 60 -39 54 -52 36 -15 -20 31
-47 31 -50 7 -50 -12 0 -27 17 -45 51 -14 28 -26 52 -26 54 0 16 286 20 296 4z
m659 -40 c35 -6 12 -7 -78 -5 -84 2 -132 7 -140 15 -9 10 7 11 78 5 50 -4 113
-11 140 -15z m-970 -9 c3 -5 1 -10 -4 -10 -6 0 -11 5 -11 10 0 6 2 10 4 10 3
0 8 -4 11 -10z m20 -30 c3 -5 -1 -10 -10 -10 -9 0 -13 5 -10 10 3 6 8 10 10
10 2 0 7 -4 10 -10z m1055 -10 c34 -11 -89 -11 -150 -1 -39 7 -34 9 40 9 47 0
96 -4 110 -8z m-330 -20 c0 -5 -23 -10 -51 -10 -31 0 -48 4 -44 10 3 6 26 10
51 10 24 0 44 -4 44 -10z m407 -38 c30 -17 -8 -25 -121 -23 -114 1 -194 7
-256 18 l-35 7 40 7 c52 10 351 2 372 -9z m-979 1 c-10 -2 -28 -2 -40 0 -13 2
-5 4 17 4 22 1 32 -1 23 -4z m205 -49 c15 -3 27 -12 27 -19 0 -6 9 -20 20 -30
19 -17 28 -55 13 -55 -11 0 -257 27 -325 36 -44 5 -59 11 -63 25 -4 11 -11 19
-16 19 -16 0 -9 28 9 34 22 7 298 -2 335 -10z m557 -5 c57 -1 100 -9 100 -18
0 -4 -33 -4 -72 0 -40 4 -83 8 -96 8 -13 1 -20 5 -17 11 4 6 14 8 24 5 9 -3
37 -5 61 -6z m-38 -44 c162 -17 188 -23 188 -41 0 -18 3 -18 -88 5 -43 11
-117 25 -167 32 -49 6 -92 13 -94 15 -7 6 15 5 161 -11z m-72 -40 c89 -8 233
-36 245 -47 6 -7 -59 -9 -183 -6 -202 4 -216 7 -205 49 4 15 12 18 42 14 20
-2 65 -7 101 -10z m-545 -36 c12 -5 -11 -7 -59 -6 -53 1 -81 6 -84 14 -3 10
11 11 60 6 35 -3 72 -10 83 -14z m-17 -48 c47 -1 52 -3 52 -23 -1 -21 -2 -21
-11 -5 -13 21 -33 23 -25 1 3 -9 8 -28 11 -42 4 -20 2 -18 -8 7 -14 35 -37 53
-37 29 -1 -9 -4 -8 -10 3 -6 11 -18 15 -36 11 -26 -5 -27 -11 -9 -54 6 -16 1
-18 -41 -18 -66 0 -124 11 -124 22 0 5 16 25 35 44 34 32 39 34 93 30 31 -2
81 -4 110 -5z m89 -34 c0 -17 -1 -25 -4 -17 -3 8 -10 23 -15 33 -6 12 -5 17 4
17 8 0 14 -14 15 -33z m38 -13 c9 -62 1 -65 -11 -4 -6 28 -7 50 -3 50 4 0 10
-21 14 -46z m59 -8 c20 -42 20 -46 1 -46 -9 0 -20 12 -25 26 -23 58 -2 75 24
20z m564 -4 c40 -11 82 -26 94 -34 25 -17 37 -81 13 -72 -8 4 -15 15 -15 25 0
12 -10 23 -26 29 -36 14 -36 14 -29 -21 5 -22 4 -29 -4 -25 -6 4 -11 20 -11
37 0 30 -23 41 -33 17 -3 -8 -6 -6 -6 5 -1 12 -9 17 -32 17 -29 0 -30 -2 -25
-32 l5 -33 -16 38 c-20 47 -37 49 -29 3 4 -22 3 -35 -5 -38 -15 -5 -198 18
-206 26 -4 3 -1 6 5 6 6 0 14 9 17 20 3 11 15 20 25 20 10 0 20 9 23 21 6 21
10 22 94 16 48 -3 121 -15 161 -25z m-755 -12 c3 -11 1 -20 -4 -20 -5 0 -9 9
-9 20 0 11 2 20 4 20 2 0 6 -9 9 -20z m754 -72 c-3 -8 -6 -5 -6 6 -1 11 2 17
5 13 3 -3 4 -12 1 -19z m-1337 -8 c0 -6 -33 -10 -80 -10 -47 0 -80 4 -80 10 0
6 33 10 80 10 47 0 80 -4 80 -10z m160 0 c0 -5 -18 -10 -40 -10 -22 0 -40 5
-40 10 0 6 18 10 40 10 22 0 40 -4 40 -10z m835 -65 c244 -18 459 -45 448 -56
-22 -21 -157 -25 -412 -13 -256 13 -548 37 -558 47 -2 3 1 14 8 25 11 18 22
19 163 16 83 -2 241 -10 351 -19z m-325 -81 c107 -7 322 -18 478 -25 155 -7
282 -16 282 -20 0 -12 -120 -115 -175 -150 -41 -26 -56 -30 -90 -25 -22 3
-123 7 -225 8 -182 3 -186 3 -232 31 -48 28 -58 42 -36 49 24 8 -7 56 -36 56
-28 0 -34 -16 -14 -36 6 -6 9 -15 5 -19 -4 -3 -15 12 -24 35 -16 42 -46 60
-36 22 8 -30 -4 -24 -22 10 -9 17 -20 28 -26 25 -5 -4 -7 -10 -4 -15 6 -9 -60
-4 -76 6 -5 3 -9 12 -9 20 0 8 -6 14 -13 14 -7 0 -21 6 -30 13 -24 17 35 17
283 1z m-110 -151 c0 -7 10 -13 23 -13 12 0 33 -9 47 -20 l25 -20 -30 0 c-38
0 -169 71 -173 93 -2 12 3 17 17 17 12 0 21 5 21 12 0 7 16 -3 35 -22 19 -19
35 -40 35 -47z m184 -130 c4 -4 23 -8 44 -8 20 -1 53 -9 72 -18 34 -15 32 -16
-70 -11 -105 6 -128 12 -116 33 8 12 59 15 70 4z"/>
<path d="M4278 5291 c-27 -4 -54 -13 -60 -20 -11 -10 3 -11 72 -6 l85 7 105
-76 c97 -71 130 -88 130 -68 0 4 -28 28 -62 53 -182 129 -168 124 -270 110z"/>
<path d="M4255 5063 c-89 -13 -127 -25 -114 -37 2 -2 49 3 104 10 150 20 156
19 216 -26 35 -26 57 -36 63 -30 11 11 -2 23 -73 71 -50 32 -54 32 -196 12z"/>
<path d="M4400 4961 c0 -11 72 -61 88 -61 22 0 12 17 -26 44 -39 26 -62 33
-62 17z"/>
<path d="M4314 4865 c-30 -30 -26 -58 12 -92 42 -39 69 -30 97 30 22 48 22 64
-2 77 -35 18 -80 12 -107 -15z"/>
<path d="M3963 4693 c-21 -8 -15 -25 6 -18 14 4 69 -27 191 -105 94 -60 174
-110 176 -110 2 0 4 6 3 13 0 14 -330 227 -350 226 -8 0 -20 -3 -26 -6z"/>
<path d="M4010 5298 c-21 -81 -53 -173 -82 -235 -30 -64 -136 -188 -182 -212
-31 -17 -34 -31 -5 -31 27 0 136 108 186 187 59 91 135 333 105 333 -6 0 -16
-19 -22 -42z"/>
<path d="M3800 5107 l-25 -11 33 -4 c40 -4 66 4 57 18 -8 13 -33 12 -65 -3z"/>
<path d="M3233 4879 c10 -181 31 -232 150 -355 56 -59 84 -81 91 -74 7 7 -9
29 -53 72 -75 74 -127 148 -143 203 -6 22 -13 89 -17 149 -4 81 -10 111 -20
114 -12 4 -13 -14 -8 -109z"/>
<path d="M4718 3095 c-2 -3 -40 -10 -84 -15 -102 -13 -114 -17 -114 -41 0 -23
-10 -23 127 2 97 18 113 24 113 40 0 18 -29 27 -42 14z"/>
<path d="M3127 3654 c-7 -8 52 -104 64 -104 15 0 10 14 -21 63 -31 49 -33 51
-43 41z"/>
<path d="M3230 3650 c0 -6 9 -29 20 -50 22 -43 46 -55 35 -17 l-7 22 17 -23
c23 -31 38 -17 20 19 -16 30 -35 39 -35 17 -1 -7 -8 -1 -16 15 -15 27 -34 37
-34 17z"/>
<path d="M3107 3274 c-8 -8 3 -34 14 -34 11 0 12 27 0 34 -4 3 -11 3 -14 0z"/>
<path d="M3579 2955 c-7 -6 39 -146 52 -159 14 -15 11 24 -7 85 -15 53 -35 85
-45 74z"/>
<path d="M3640 2951 c0 -6 7 -40 16 -78 15 -66 28 -93 39 -81 5 5 -18 118 -31
152 -7 17 -24 22 -24 7z"/>
<path d="M3690 2935 c0 -3 7 -35 16 -70 10 -41 22 -65 30 -65 17 0 18 -5 -6
74 -12 36 -25 66 -30 66 -6 0 -10 -2 -10 -5z"/>
<path d="M3744 2902 c10 -64 25 -97 38 -84 6 6 17 8 24 5 17 -6 17 10 0 66
-17 58 -39 68 -32 15 6 -38 6 -38 -4 -7 -16 50 -34 54 -26 5z"/>
<path d="M3825 2903 c7 -39 20 -61 30 -51 4 3 1 24 -5 47 -14 53 -35 55 -25 4z"/>
<path d="M3860 2912 c0 -25 16 -46 29 -38 18 12 12 43 -9 49 -14 4 -20 0 -20
-11z"/>
<path d="M1670 7455 c0 -26 24 -76 84 -174 31 -51 61 -113 67 -139 13 -53 27
-75 41 -66 16 10 2 71 -42 173 -64 151 -102 216 -127 219 -16 2 -23 -2 -23
-13z"/>
<path d="M7073 3446 c-13 -41 -23 -84 -23 -96 0 -11 -7 -32 -16 -46 -11 -17
-14 -28 -7 -35 14 -14 43 33 50 79 3 20 14 63 24 94 22 68 23 78 7 78 -7 0
-23 -34 -35 -74z"/>
<path d="M2738 3173 c12 -2 32 -2 45 0 12 2 2 4 -23 4 -25 0 -35 -2 -22 -4z"/>
<path d="M2738 3103 c12 -2 32 -2 45 0 12 2 2 4 -23 4 -25 0 -35 -2 -22 -4z"/>
</g>
</svg>
